<svg width="310" height="233" viewBox="0 0 310 233" fill="none" xmlns="http://www.w3.org/2000/svg">
<path d="M114.967 40.8876H111.341V105.343H114.967V40.8876Z" fill="#9E2D32"/>
<path d="M121.937 40.8876H118.312V117.1H121.937V40.8876Z" fill="#9E2D32"/>
<path d="M191.688 40.8876H188.063V117.1H191.688V40.8876Z" fill="#9E2D32"/>
<path d="M198.659 40.8876H195.033V105.343H198.659V40.8876Z" fill="#9E2D32"/>
<path d="M126.358 99.0798H125.306V123.869H128.931V99.0798H127.879V40.8876H126.358V99.0798Z" fill="#9E2D32"/>
<path d="M133.329 108.815H132.276V128.154H135.902V108.815H134.849V40.8876H133.329V108.815Z" fill="#9E2D32"/>
<path d="M182.145 99.0798H181.092V123.869H184.718V99.0798H183.665V40.8876H182.145V99.0798Z" fill="#9E2D32"/>
<path d="M175.175 108.815H174.122V128.154H177.748V108.815H176.695V40.8876H175.175V108.815Z" fill="#9E2D32"/>
<path d="M139.246 95.5417H140.299V114.002H139.246V130.813H142.872V114.002H141.819V95.5417H142.872V40.8876H139.246V95.5417Z" fill="#9E2D32"/>
<path d="M146.217 102.596H147.293V116.111H146.217V132.483H149.866V116.111H148.79V102.596H149.866V40.8876H146.217V102.596Z" fill="#9E2D32"/>
<path d="M153.187 104.112H154.263V117.628H153.187V133.186H156.836V117.628H155.76V104.112H156.836V40.8876H153.187V104.112Z" fill="#9E2D32"/>
<path d="M160.158 102.596H161.234V116.111H160.158V132.483H163.807V116.111H162.731V102.596H163.807V40.8876H160.158V102.596Z" fill="#9E2D32"/>
<path d="M167.151 95.5417H168.204V114.002H167.151V130.813H170.777V114.002H169.724V95.5417H170.777V40.8876H167.151V95.5417Z" fill="#9E2D32"/>
<path d="M51.74 161.255V146.113H48.7157V161.255C48.7157 162.562 47.5711 163.642 46.1799 163.642C44.7887 163.642 43.6674 162.562 43.6674 161.255V146.113H40.6431V161.255C40.6431 164.127 43.123 166.483 46.1799 166.483C49.2321 166.483 51.74 164.127 51.74 161.255ZM60.0592 146.113V166.002H63.0835V146.113H60.0592ZM76.9674 163.642C75.5762 163.642 74.4549 162.562 74.4549 161.255V150.855C74.4549 149.553 75.5762 148.469 76.9674 148.469C78.354 148.469 79.5032 149.553 79.5032 150.855H82.5275C82.5275 147.988 80.0197 145.627 76.9674 145.627C73.9105 145.627 71.4306 147.988 71.4306 150.855V161.255C71.4306 164.127 73.9105 166.483 76.9674 166.483C80.0197 166.483 82.5275 164.127 82.5275 161.255H79.5032C79.5032 162.562 78.354 163.642 76.9674 163.642ZM114.167 150.855V152.281H117.191V150.855C117.191 147.988 114.678 145.627 111.621 145.627C108.569 145.627 106.089 147.988 106.089 150.855V161.255C106.089 164.127 108.569 166.483 111.621 166.483C114.678 166.483 117.191 164.127 117.191 161.255V156.543H112.138V159.38H114.167V161.255C114.167 162.562 113.017 163.642 111.621 163.642C110.23 163.642 109.114 162.562 109.114 161.255V150.855C109.114 149.553 110.23 148.469 111.621 148.469C113.017 148.469 114.167 149.553 114.167 150.855ZM135.574 153.216V150.855C135.574 148.241 133.336 146.113 130.554 146.113H125.505V166.002H128.53V157.963H130.554C131.642 157.963 132.55 158.811 132.55 159.834V166.002H135.574V159.834C135.574 158.558 135.03 157.391 134.155 156.543C135.03 155.686 135.574 154.497 135.574 153.216ZM128.53 155.122V148.954H130.554C131.642 148.954 132.55 149.806 132.55 150.855V153.216C132.55 154.265 131.642 155.122 130.554 155.122H128.53ZM147.704 162.225H152.24L152.994 166.002H156.018L151.998 146.113H147.946L143.921 166.002H146.945L147.704 162.225ZM148.309 159.24L149.97 151.083L151.635 159.24H148.309ZM169.902 146.113H164.37V166.002H169.902C172.959 166.002 175.467 163.672 175.467 160.805V151.31C175.467 148.442 172.959 146.113 169.902 146.113ZM167.394 163.161V148.954H169.902C171.294 148.954 172.443 150.007 172.443 151.31V160.805C172.443 162.107 171.294 163.161 169.902 163.161H167.394ZM186.811 154.637V148.954H192.859V146.113H183.786V166.002H192.859V163.161H186.811V157.478H190.831V154.637H186.811ZM209.763 155.52C210.489 154.724 210.912 153.727 210.912 152.617V150.488C210.912 148.071 208.828 146.113 206.255 146.113H201.206V166.002H206.255C209.037 166.002 211.275 163.869 211.275 161.255V158.899C211.275 157.566 210.703 156.368 209.763 155.52ZM204.231 163.161V156.993H206.255C207.343 156.993 208.251 157.845 208.251 158.899V161.255C208.251 162.308 207.343 163.161 206.255 163.161H204.231ZM204.231 154.152V148.954H206.255C207.162 148.954 207.888 149.636 207.888 150.488V152.617C207.888 153.47 207.162 154.152 206.255 154.152H204.231ZM225.159 145.627C222.102 145.627 219.622 147.988 219.622 150.855V161.255C219.622 164.127 222.102 166.483 225.159 166.483C228.211 166.483 230.724 164.127 230.724 161.255V150.855C230.724 147.988 228.211 145.627 225.159 145.627ZM222.646 161.255V150.855C222.646 149.553 223.768 148.469 225.159 148.469C226.55 148.469 227.699 149.553 227.699 150.855V161.255C227.699 162.562 226.55 163.642 225.159 163.642C223.768 163.642 222.646 162.562 222.646 161.255ZM244.575 145.627C241.518 145.627 239.038 147.988 239.038 150.855V161.255C239.038 164.127 241.518 166.483 244.575 166.483C247.627 166.483 250.14 164.127 250.14 161.255V150.855C250.14 147.988 247.627 145.627 244.575 145.627ZM242.063 161.255V150.855C242.063 149.553 243.184 148.469 244.575 148.469C245.966 148.469 247.115 149.553 247.115 150.855V161.255C247.115 162.562 245.966 163.642 244.575 163.642C243.184 163.642 242.063 162.562 242.063 161.255ZM261.479 158.134L262.056 157.251L266.318 166.002H269.342L263.749 154.549L269.132 146.113H266.108L261.479 153.387V146.113H258.454V166.002H261.479V158.134Z" fill="#9E2D32"/>
</svg>
